<mxfile host="app.diagrams.net" modified="2023-10-19T10:08:41.052Z" agent="Mozilla/5.0 (X11; Linux x86_64; rv:109.0) Gecko/20100101 Firefox/118.0" etag="2EhCavofIQs6q5qFBFXH" version="22.0.5" type="github">
  <diagram name="Page-1" id="2YBvvXClWsGukQMizWep">
    <mxGraphModel dx="648" dy="612" grid="1" gridSize="10" guides="1" tooltips="1" connect="1" arrows="1" fold="1" page="1" pageScale="1" pageWidth="850" pageHeight="1100" math="0" shadow="0">
      <root>
        <mxCell id="0" />
        <mxCell id="1" parent="0" />
        <mxCell id="cc4XYzGoG_5n-Fmv61_O-27" value="" style="html=1;points=[];perimeter=orthogonalPerimeter;outlineConnect=0;targetShapes=umlLifeline;portConstraint=eastwest;newEdgeStyle={&quot;edgeStyle&quot;:&quot;elbowEdgeStyle&quot;,&quot;elbow&quot;:&quot;vertical&quot;,&quot;curved&quot;:0,&quot;rounded&quot;:0};" vertex="1" parent="1">
          <mxGeometry x="385" y="180" width="10" height="60" as="geometry" />
        </mxCell>
        <mxCell id="aM9ryv3xv72pqoxQDRHE-1" value=":Agent" style="shape=umlLifeline;perimeter=lifelinePerimeter;whiteSpace=wrap;html=1;container=0;dropTarget=0;collapsible=0;recursiveResize=0;outlineConnect=0;portConstraint=eastwest;newEdgeStyle={&quot;edgeStyle&quot;:&quot;elbowEdgeStyle&quot;,&quot;elbow&quot;:&quot;vertical&quot;,&quot;curved&quot;:0,&quot;rounded&quot;:0};" parent="1" vertex="1">
          <mxGeometry x="40" y="40" width="100" height="560" as="geometry" />
        </mxCell>
        <mxCell id="aM9ryv3xv72pqoxQDRHE-2" value="" style="html=1;points=[];perimeter=orthogonalPerimeter;outlineConnect=0;targetShapes=umlLifeline;portConstraint=eastwest;newEdgeStyle={&quot;edgeStyle&quot;:&quot;elbowEdgeStyle&quot;,&quot;elbow&quot;:&quot;vertical&quot;,&quot;curved&quot;:0,&quot;rounded&quot;:0};" parent="aM9ryv3xv72pqoxQDRHE-1" vertex="1">
          <mxGeometry x="45" y="70" width="10" height="360" as="geometry" />
        </mxCell>
        <mxCell id="aM9ryv3xv72pqoxQDRHE-5" value=":DiscoverySystem" style="shape=umlLifeline;perimeter=lifelinePerimeter;whiteSpace=wrap;html=1;container=0;dropTarget=0;collapsible=0;recursiveResize=0;outlineConnect=0;portConstraint=eastwest;newEdgeStyle={&quot;edgeStyle&quot;:&quot;elbowEdgeStyle&quot;,&quot;elbow&quot;:&quot;vertical&quot;,&quot;curved&quot;:0,&quot;rounded&quot;:0};" parent="1" vertex="1">
          <mxGeometry x="340" y="40" width="100" height="550" as="geometry" />
        </mxCell>
        <mxCell id="aM9ryv3xv72pqoxQDRHE-6" value="" style="html=1;points=[];perimeter=orthogonalPerimeter;outlineConnect=0;targetShapes=umlLifeline;portConstraint=eastwest;newEdgeStyle={&quot;edgeStyle&quot;:&quot;elbowEdgeStyle&quot;,&quot;elbow&quot;:&quot;vertical&quot;,&quot;curved&quot;:0,&quot;rounded&quot;:0};" parent="aM9ryv3xv72pqoxQDRHE-5" vertex="1">
          <mxGeometry x="45" y="80" width="10" height="350" as="geometry" />
        </mxCell>
        <mxCell id="aM9ryv3xv72pqoxQDRHE-7" value="connect(Pseudo)" style="html=1;verticalAlign=bottom;endArrow=block;edgeStyle=elbowEdgeStyle;elbow=vertical;curved=0;rounded=0;" parent="1" source="aM9ryv3xv72pqoxQDRHE-2" target="aM9ryv3xv72pqoxQDRHE-6" edge="1">
          <mxGeometry relative="1" as="geometry">
            <mxPoint x="195" y="130" as="sourcePoint" />
            <Array as="points">
              <mxPoint x="180" y="120" />
            </Array>
          </mxGeometry>
        </mxCell>
        <mxCell id="cc4XYzGoG_5n-Fmv61_O-1" value=":RÃ©seau" style="shape=umlLifeline;perimeter=lifelinePerimeter;whiteSpace=wrap;html=1;container=0;dropTarget=0;collapsible=0;recursiveResize=0;outlineConnect=0;portConstraint=eastwest;newEdgeStyle={&quot;edgeStyle&quot;:&quot;elbowEdgeStyle&quot;,&quot;elbow&quot;:&quot;vertical&quot;,&quot;curved&quot;:0,&quot;rounded&quot;:0};" vertex="1" parent="1">
          <mxGeometry x="650" y="40" width="100" height="560" as="geometry" />
        </mxCell>
        <mxCell id="cc4XYzGoG_5n-Fmv61_O-3" value="sendToAll(connection, Pseudo)" style="html=1;verticalAlign=bottom;endArrow=block;edgeStyle=elbowEdgeStyle;elbow=vertical;curved=0;rounded=0;" edge="1" parent="1">
          <mxGeometry relative="1" as="geometry">
            <mxPoint x="395" y="140" as="sourcePoint" />
            <Array as="points">
              <mxPoint x="485" y="140" />
            </Array>
            <mxPoint x="699.5" y="140" as="targetPoint" />
          </mxGeometry>
        </mxCell>
        <mxCell id="cc4XYzGoG_5n-Fmv61_O-26" value="" style="endArrow=classic;html=1;rounded=0;elbow=vertical;" edge="1" parent="1" source="cc4XYzGoG_5n-Fmv61_O-27" target="cc4XYzGoG_5n-Fmv61_O-27">
          <mxGeometry width="50" height="50" relative="1" as="geometry">
            <mxPoint x="389.83666666666653" y="210" as="sourcePoint" />
            <mxPoint x="510.17" y="210" as="targetPoint" />
            <Array as="points">
              <mxPoint x="450" y="210" />
            </Array>
          </mxGeometry>
        </mxCell>
        <mxCell id="cc4XYzGoG_5n-Fmv61_O-30" value="sleep()" style="edgeLabel;html=1;align=center;verticalAlign=middle;resizable=0;points=[];" vertex="1" connectable="0" parent="cc4XYzGoG_5n-Fmv61_O-26">
          <mxGeometry x="0.2" relative="1" as="geometry">
            <mxPoint x="23" y="-10" as="offset" />
          </mxGeometry>
        </mxCell>
        <mxCell id="cc4XYzGoG_5n-Fmv61_O-31" value="" style="group" vertex="1" connectable="0" parent="1">
          <mxGeometry y="240" width="760" height="210" as="geometry" />
        </mxCell>
        <mxCell id="cc4XYzGoG_5n-Fmv61_O-7" value="loop" style="shape=umlFrame;whiteSpace=wrap;html=1;pointerEvents=0;movable=1;resizable=1;rotatable=1;deletable=1;editable=1;locked=0;connectable=1;" vertex="1" parent="cc4XYzGoG_5n-Fmv61_O-31">
          <mxGeometry width="760.0000000000001" height="200" as="geometry" />
        </mxCell>
        <mxCell id="cc4XYzGoG_5n-Fmv61_O-8" value="[For Agent in Agents]" style="text;html=1;align=center;verticalAlign=middle;resizable=1;points=[];autosize=1;strokeColor=none;fillColor=none;movable=1;rotatable=1;deletable=1;editable=1;locked=0;connectable=1;" vertex="1" parent="cc4XYzGoG_5n-Fmv61_O-31">
          <mxGeometry x="78.62068965517243" width="183.448275862069" height="30" as="geometry" />
        </mxCell>
        <mxCell id="cc4XYzGoG_5n-Fmv61_O-16" value="" style="group" vertex="1" connectable="0" parent="cc4XYzGoG_5n-Fmv61_O-31">
          <mxGeometry width="760.0000000000001" height="210" as="geometry" />
        </mxCell>
        <mxCell id="cc4XYzGoG_5n-Fmv61_O-19" value="" style="line;strokeWidth=1;fillColor=none;align=left;verticalAlign=middle;spacingTop=-1;spacingLeft=3;spacingRight=3;rotatable=0;labelPosition=right;points=[];portConstraint=eastwest;strokeColor=inherit;" vertex="1" parent="cc4XYzGoG_5n-Fmv61_O-16">
          <mxGeometry x="117.93103448275865" y="96" width="131.03448275862073" height="8" as="geometry" />
        </mxCell>
        <mxCell id="cc4XYzGoG_5n-Fmv61_O-9" value="alt" style="shape=umlFrame;whiteSpace=wrap;html=1;pointerEvents=0;" vertex="1" parent="cc4XYzGoG_5n-Fmv61_O-16">
          <mxGeometry x="13.103448275862071" y="35" width="733.793103448276" height="130" as="geometry" />
        </mxCell>
        <mxCell id="cc4XYzGoG_5n-Fmv61_O-22" value="" style="endArrow=none;html=1;rounded=0;exitX=0.004;exitY=0.433;exitDx=0;exitDy=0;exitPerimeter=0;entryX=0.998;entryY=0.414;entryDx=0;entryDy=0;entryPerimeter=0;dashed=1;strokeWidth=1;" edge="1" parent="cc4XYzGoG_5n-Fmv61_O-16" source="cc4XYzGoG_5n-Fmv61_O-9" target="cc4XYzGoG_5n-Fmv61_O-9">
          <mxGeometry width="50" height="50" relative="1" as="geometry">
            <mxPoint x="196.55172413793107" y="285" as="sourcePoint" />
            <mxPoint x="262.06896551724145" y="235" as="targetPoint" />
          </mxGeometry>
        </mxCell>
        <mxCell id="cc4XYzGoG_5n-Fmv61_O-33" value="[Pseudo valide]" style="text;html=1;align=center;verticalAlign=middle;resizable=0;points=[];autosize=1;strokeColor=none;fillColor=none;" vertex="1" parent="cc4XYzGoG_5n-Fmv61_O-16">
          <mxGeometry x="89.99944444444448" y="35" width="110" height="30" as="geometry" />
        </mxCell>
        <mxCell id="cc4XYzGoG_5n-Fmv61_O-34" value="receiveFromAgent(invalidPseudo)" style="html=1;verticalAlign=bottom;endArrow=block;edgeStyle=elbowEdgeStyle;elbow=vertical;curved=0;rounded=0;" edge="1" parent="1" source="cc4XYzGoG_5n-Fmv61_O-1" target="aM9ryv3xv72pqoxQDRHE-6">
          <mxGeometry relative="1" as="geometry">
            <mxPoint x="704.5" y="369.9999999999999" as="sourcePoint" />
            <Array as="points">
              <mxPoint x="605.33" y="370" />
            </Array>
            <mxPoint x="400" y="369.9999999999999" as="targetPoint" />
          </mxGeometry>
        </mxCell>
        <mxCell id="cc4XYzGoG_5n-Fmv61_O-39" value="return(List&amp;lt;Agents&amp;gt;)" style="html=1;verticalAlign=bottom;endArrow=block;edgeStyle=elbowEdgeStyle;elbow=vertical;curved=0;rounded=0;dashed=1;" edge="1" parent="1" source="aM9ryv3xv72pqoxQDRHE-5" target="aM9ryv3xv72pqoxQDRHE-1">
          <mxGeometry relative="1" as="geometry">
            <mxPoint x="380" y="470" as="sourcePoint" />
            <Array as="points">
              <mxPoint x="240" y="470" />
            </Array>
            <mxPoint x="95.16666666666652" y="460.0000000000001" as="targetPoint" />
          </mxGeometry>
        </mxCell>
        <mxCell id="cc4XYzGoG_5n-Fmv61_O-24" value="receiveFromAgent(Pseudo)" style="html=1;verticalAlign=bottom;endArrow=block;edgeStyle=elbowEdgeStyle;elbow=vertical;curved=0;rounded=0;" edge="1" parent="1" source="cc4XYzGoG_5n-Fmv61_O-1" target="aM9ryv3xv72pqoxQDRHE-6">
          <mxGeometry relative="1" as="geometry">
            <mxPoint x="684.8965517241379" y="299.9999999999999" as="sourcePoint" />
            <Array as="points">
              <mxPoint x="561.7889655172414" y="300" />
            </Array>
            <mxPoint x="306.89655172413796" y="299.9999999999999" as="targetPoint" />
          </mxGeometry>
        </mxCell>
        <mxCell id="cc4XYzGoG_5n-Fmv61_O-40" value="error(invalidPseudo)" style="html=1;verticalAlign=bottom;endArrow=block;edgeStyle=elbowEdgeStyle;elbow=vertical;curved=0;rounded=0;dashed=1;" edge="1" parent="1" source="aM9ryv3xv72pqoxQDRHE-6" target="aM9ryv3xv72pqoxQDRHE-2">
          <mxGeometry relative="1" as="geometry">
            <mxPoint x="390" y="390" as="sourcePoint" />
            <Array as="points">
              <mxPoint x="240" y="390" />
            </Array>
            <mxPoint x="90" y="390" as="targetPoint" />
          </mxGeometry>
        </mxCell>
      </root>
    </mxGraphModel>
  </diagram>
</mxfile>
